# xmcd
#
# Track frame offsets: 
#        150
#        19219
#        40126
#        63170
#        80627
#        95440
#        110478
#        127541
#        144098
#
# Disc length: 2146 seconds
#
# Revision: 0
# Processed by: cddbd v1.5.2PL0 Copyright (c) Steve Scherf et al.
# Submitted via: ExactAudioCopy v0.95a5
#
DISCID=67086009
DTITLE=Fenton Robinson - I hear some blues downstairs
DYEAR=1977
DGENRE=Blues
TTITLE0=I Hear Some Blues Downstairs
TTITLE1=Just A Little Bit
TTITLE2=West Side Baby
TTITLE3=I'm So Tired
TTITLE4=I Wish For You
TTITLE5=Tell Me What's The Reason
TTITLE6=Going West
TTITLE7=Killing Floor
TTITLE8=As The Years Go Passing By
EXTD=
EXTT0=
EXTT1=
EXTT2=
EXTT3=
EXTT4=
EXTT5=
EXTT6=
EXTT7=
EXTT8=
PLAYORDER=
